<?xml version="1.0" encoding="utf-8"?>
<!-- Generator: Adobe Illustrator 25.4.1, SVG Export Plug-In . SVG Version: 6.00 Build 0)  -->
<svg version="1.0" id="Calque_1" xmlns="http://www.w3.org/2000/svg" xmlns:xlink="http://www.w3.org/1999/xlink" x="0px" y="0px"
	 width="407.2px" height="312.7px" viewBox="0 0 407.2 312.7" style="enable-background:new 0 0 407.2 312.7;" xml:space="preserve"
>
<style type="text/css">
	.st0{fill:none;stroke:#0C223F;stroke-width:12.1732;stroke-linecap:round;stroke-linejoin:round;stroke-miterlimit:10;}
	.st1{fill:#FCB428;stroke:#0C223F;stroke-width:12.1732;stroke-miterlimit:10;}
	.st2{fill:#0C223F;}
</style>
	<g>
	<path class="st0" d="M175.3,176.1c-9.5,14-25.5,23.2-43.6,23.2c-29.1,0-52.6-23.6-52.6-52.6S102.7,94,131.7,94
		c13.8,0,28.9,8.6,28.9,8.6"/>
		<path class="st0" d="M175.3,176.1"/>
		<path class="st0" d="M180.6,127.1c2.4,6,3.7,12.6,3.7,19.5"/>
		<path class="st0" d="M177.6,120.8"/>
		<circle class="st1" cx="131.7" cy="146.6" r="22.4"/>
		<path class="st0" d="M295.7,98.6"/>
		<path class="st0" d="M275.8,114.2c-7,8.9-11.2,20.2-11.2,32.5c0,29.1,23.6,52.6,52.6,52.6s52.6-23.6,52.6-52.6S346.3,94,317.2,94
		c-7.7,0-15,1.6-21.5,4.6"/>
		<circle class="st1" cx="317.2" cy="146.6" r="22.4"/>
		<polyline class="st0" points="144.8,124.9 184.2,69.6 275.8,69.6 213.5,146.6 156.5,146.6 	"/>
		<path class="st0" d="M275.8,69.6c8.6,24.4,31.5,54.6,31.5,54.6"/>
		<line class="st0" x1="213.5" y1="146.6" x2="172.8" y2="43.5"/>
		<line class="st0" x1="151.6" y1="43.5" x2="189.6" y2="43.5"/>
		<path class="st0" d="M262.6,43.5h20c30.4,0,23.3,26.1,23.3,26.1"/>
		<line class="st0" x1="28.8" y1="157" x2="91.5" y2="157"/>
		<line class="st0" x1="44" y1="131.5" x2="60.2" y2="131.5"/>
</g>
	<g>
	<g>
		<path class="st2" d="M230.1,264.5c0,11.3-9.2,18.7-23.5,18.7h-24.4c-3.5,0-5.4-1.9-5.4-5.4v-52c0-3.5,1.9-5.4,5.4-5.4h21.9
			c13.6,0,23.3,6.8,23.3,18.1c0,4-1.9,9-8.3,11.7C226.5,251.6,230.1,259.4,230.1,264.5z M195.6,235.1v10.9h5.6
			c5.7,0,8.3-2.4,8.3-5.2c0-3.4-2.7-5.7-7.4-5.7H195.6z M212,262.7c0-2.7-2.5-5.7-8.1-5.7h-8.3V268h9.9
			C210.2,268,212,265.3,212,262.7z"/>
		<path class="st2" d="M237.8,277.8v-52c0-3.5,1.9-5.4,5.4-5.4h8.1c3.5,0,5.4,1.9,5.4,5.4v52c0,3.5-1.9,5.4-5.4,5.4h-8.1
			C239.7,283.2,237.8,281.3,237.8,277.8z"/>
		<path class="st2" d="M293.3,270.7l-6.9-17.2v24.3c0,3.5-1.9,5.4-5.4,5.4h-8.1c-3.5,0-5.4-1.9-5.4-5.4v-52c0-3.5,1.9-5.4,5.4-5.4
			h8.1c3.5,0,5.4,1.9,5.4,5.4v21.5l12.9-23.2c1.4-2.6,3.4-3.8,6.4-3.8h9.2c4.6,0,5.8,1.9,3.3,6.1L304,250l5.7,12.8
			c2.9,6.4,4.8,7.1,7.2,6.6l1.9-0.4c2.6-0.7,3.5,0.9,4.7,3.7l1.3,3c1.3,3.2,0.3,6-3.3,7.3c-2.5,0.8-4.7,1.2-7.9,1.2
			C306,284.1,298,281.7,293.3,270.7z"/>
		<path class="st2" d="M349.5,236.5v8.2h17.1c3.5,0,5.4,1.9,5.4,5.4v3.6c0,3.5-1.9,5.4-5.4,5.4h-17.1v8H370c3.5,0,5.4,1.9,5.4,5.4
			v5.4c0,3.5-1.9,5.4-5.4,5.4h-34c-3.5,0-5.4-1.9-5.4-5.4v-52c0-3.5,1.9-5.4,5.4-5.4h34c3.5,0,5.4,1.9,5.4,5.4v5.4
			c0,3.5-1.9,5.4-5.4,5.4H349.5z"/>
	</g>
		<g>
		<path class="st2" d="M21,252.7c0-17.5,13.8-32.4,35-32.4c7.2,0,12.7,1.7,17.8,4.6c3.1,1.9,3.3,4.8,1,7.5l-3.6,4.1
			c-2.2,2.4-4.4,2.5-7.4,1.3c-2.6-1.1-5.3-1.3-7.7-1.3c-9.8,0-16.2,7.2-16.2,16.2S46.2,269,56,269c2,0,5.4-0.3,7.5-1v-6.9h-7.6
			c-3.5,0-5.4-1.9-5.4-5.4v-2.8c0-3.5,1.9-5.4,5.4-5.4h20.2c3.5,0,5.4,1.9,5.4,5.4v18c0,2.8-0.7,4.8-2.8,6.3
			c-6.2,4.8-13.6,7.9-22.7,7.9C34.8,285.1,21,270.2,21,252.7z"/>
			<path class="st2" d="M86.9,252.7c0-17.5,12.7-32.4,33.9-32.4c21.2,0,33.9,14.9,33.9,32.4c0,17.5-12.7,32.4-33.9,32.4
			C99.6,285.1,86.9,270.2,86.9,252.7z M135.9,252.7c0-8.8-5.5-16.2-15.1-16.2c-9.6,0-15.1,7.4-15.1,16.2c0,8.8,5.5,16.2,15.1,16.2
			C130.4,269,135.9,261.5,135.9,252.7z"/>
	</g>
</g>
	<g>
</g>
	<g>
</g>
	<g>
</g>
	<g>
</g>
	<g>
</g>
	<g>
</g>
	<g>
</g>
	<g>
</g>
	<g>
</g>
	<g>
</g>
	<g>
</g>
	<g>
</g>
	<g>
</g>
	<g>
</g>
	<g>
</g>
</svg>
